<?xml version="1.0" standalone="no"?>
<!DOCTYPE svg PUBLIC "-//W3C//DTD SVG 20010904//EN"
 "http://www.w3.org/TR/2001/REC-SVG-20010904/DTD/svg10.dtd">
<svg version="1.0" xmlns="http://www.w3.org/2000/svg"
 width="610.000000pt" height="610.000000pt" viewBox="0 0 610.000000 610.000000"
 preserveAspectRatio="xMidYMid meet">
<metadata>
Created by potrace 1.14, written by Peter Selinger 2001-2017
</metadata>
<g transform="translate(0.000000,610.000000) scale(0.100000,-0.100000)"
fill="#000000" stroke="none">
<path d="M2710 5900 l0 -150 -775 0 -775 0 0 -125 0 -125 -75 0 -75 0 0 -150
0 -150 -25 0 -25 0 0 -275 0 -275 75 0 75 0 0 -150 0 -150 150 0 150 0 0 -125
0 -125 200 0 200 0 0 -150 0 -150 225 0 225 0 0 -150 0 -150 225 0 225 0 0
-1725 0 -1725 325 0 325 0 0 75 0 75 100 0 100 0 0 125 0 125 250 0 250 0 0
150 0 150 225 0 225 0 0 125 0 125 150 0 150 0 0 150 0 150 125 0 125 0 0 125
0 125 50 0 50 0 0 300 0 300 -100 0 -100 0 0 125 0 125 -125 0 -125 0 0 125 0
125 -200 0 -200 0 0 150 0 150 -200 0 -200 0 0 150 0 150 -275 0 -275 0 0
1400 0 1400 -325 0 -325 0 0 -150z"/>
</g>
</svg>
